<svg width="287" height="33" viewBox="0 0 287 33" fill="none" xmlns="http://www.w3.org/2000/svg">
<rect width="76.5301" height="28.0829" fill="#FF7400" style="fill:#FF7400;fill:color(display-p3 1.0000 0.4549 0.0000);fill-opacity:1;"/>
<path d="M28.9988 2.62962H42.3703V25.293H28.9988V13.9613L22.4988 17.2459V12.1548L28.9988 2.62962Z" fill="#242220" style="fill:#242220;fill:color(display-p3 0.1412 0.1333 0.1255);fill-opacity:1;"/>
<path d="M15.9988 2.62962H2.62724V25.293H15.9988V13.9613L22.4988 17.2459V12.1548L15.9988 2.62962Z" fill="#242220" style="fill:#242220;fill:color(display-p3 0.1412 0.1333 0.1255);fill-opacity:1;"/>
<path d="M74.5595 16.8903L54.252 19.2647H74.5595V25.293H44.5059V10.862L64.8543 9.45834L44.5059 8.65792V2.62962H74.5595V16.8903Z" fill="#242220" style="fill:#242220;fill:color(display-p3 0.1412 0.1333 0.1255);fill-opacity:1;"/>
<path d="M269.22 22.3438L282.915 8.8774H287.001V26.691H282.915V13.2246L269.22 26.691H265.134V8.8774H269.22V22.3438Z" fill="white" style="fill:white;fill-opacity:1;"/>
<path d="M262.201 8.8774V12.5055H253.343V26.691H249.258V12.5055H240.269V8.8774H262.201Z" fill="white" style="fill:white;fill-opacity:1;"/>
<path d="M238.952 18.192C238.908 19.7609 238.538 21.2427 237.84 22.6373C237.143 24.01 236.141 25.1322 234.833 26.0039C233.548 26.8537 232.033 27.2786 230.29 27.2786C226.52 27.2786 223.644 26.3416 221.661 24.4676V32.9005H217.575V8.87669H220.975L221.498 11.4915C223.546 9.48682 226.477 8.48447 230.29 8.48447C231.968 8.48447 233.45 8.89848 234.735 9.72651C236.043 10.5545 237.067 11.6876 237.808 13.1258C238.549 14.564 238.93 16.1764 238.952 17.9632V18.0613V18.192ZM228.002 24.4023C229.418 24.4023 230.617 24.0754 231.597 23.4217C232.6 22.7462 233.352 21.9182 233.853 20.9376C234.376 19.9353 234.648 18.9656 234.67 18.0286C234.648 16.9173 234.398 15.8605 233.918 14.8581C233.461 13.834 232.731 12.9951 231.728 12.3413C230.748 11.6658 229.506 11.3281 228.002 11.3281C226.76 11.3281 225.66 11.6441 224.701 12.276C223.742 12.8861 222.99 13.6923 222.446 14.6947C221.923 15.6753 221.661 16.7103 221.661 17.7998C221.661 18.9983 221.923 20.0987 222.446 21.101C222.969 22.1034 223.709 22.9096 224.668 23.5198C225.649 24.1081 226.76 24.4023 228.002 24.4023Z" fill="white" style="fill:white;fill-opacity:1;"/>
<path d="M215.125 18.0298H196.56C196.625 19.1411 196.941 20.187 197.508 21.1676C198.074 22.1264 198.913 22.9108 200.025 23.5209C201.136 24.1311 202.487 24.4361 204.078 24.4361C205.45 24.4361 206.66 24.1964 207.706 23.7171C208.773 23.2159 209.591 22.6058 210.157 21.8867C210.746 21.1458 211.04 20.4376 211.04 19.7621H215.125C215.125 20.8952 214.69 22.0501 213.818 23.2268C212.946 24.4035 211.672 25.384 209.994 26.1685C208.316 26.9529 206.322 27.3451 204.012 27.3451C201.942 27.3451 200.025 26.942 198.26 26.1358C196.495 25.3077 195.089 24.1638 194.043 22.7038C192.997 21.2221 192.474 19.5442 192.474 17.6702C192.474 15.7527 192.976 14.064 193.978 12.604C195.002 11.1223 196.386 9.98917 198.129 9.20472C199.894 8.39848 201.855 7.99536 204.012 7.99536C206.213 7.99536 208.142 8.38759 209.798 9.17204C211.475 9.95649 212.772 11.0678 213.687 12.506C214.624 13.9223 215.104 15.5893 215.125 17.5068V18.0298ZM204.078 10.9371C202.204 10.9371 200.689 11.3511 199.534 12.1791C198.38 13.0071 197.551 14.0966 197.05 15.4476H210.778C210.408 14.0966 209.678 13.0071 208.588 12.1791C207.521 11.3511 206.017 10.9371 204.078 10.9371Z" fill="white" style="fill:white;fill-opacity:1;"/>
<path d="M167.813 8.8774H190.039V26.691H185.953V12.5055H171.899V26.691H167.813V8.8774Z" fill="white" style="fill:white;fill-opacity:1;"/>
<path d="M154.125 8.12451C156.261 8.12451 158.178 8.53853 159.878 9.36656C161.599 10.1946 162.939 11.3495 163.898 12.8312C164.879 14.2912 165.369 15.9363 165.369 17.7667C165.369 19.5753 164.879 21.2205 163.898 22.7022C162.939 24.1622 161.599 25.3062 159.878 26.1342C158.178 26.9622 156.261 27.3762 154.125 27.3762C152.077 27.3762 150.149 26.9622 148.34 26.1342C146.553 25.2844 145.126 24.1295 144.058 22.6695C142.99 21.1878 142.457 19.5535 142.457 17.7667C142.457 15.9581 142.99 14.3238 144.058 12.8639C145.126 11.3822 146.553 10.2273 148.34 9.39924C150.127 8.54942 152.055 8.12451 154.125 8.12451ZM154.158 24.4345C156.163 24.4345 157.851 23.9007 159.224 22.833C160.597 21.7434 161.283 20.0547 161.283 17.7667C161.283 15.4787 160.597 13.79 159.224 12.7005C157.851 11.611 156.163 11.0662 154.158 11.0662C152.894 11.0662 151.685 11.295 150.53 11.7526C149.375 12.2102 148.427 12.9402 147.686 13.9425C146.967 14.9449 146.608 16.2196 146.608 17.7667C146.608 19.3138 146.967 20.5886 147.686 21.5909C148.427 22.5715 149.364 23.2906 150.497 23.7481C151.652 24.2057 152.872 24.4345 154.158 24.4345Z" fill="white" style="fill:white;fill-opacity:1;"/>
<path d="M140.32 18.192C140.276 19.7609 139.906 21.2427 139.209 22.6373C138.511 24.01 137.509 25.1322 136.202 26.0039C134.916 26.8537 133.401 27.2786 131.658 27.2786C127.889 27.2786 125.012 26.3416 123.029 24.4676V32.9005H118.944V8.87669H122.343L122.866 11.4915C124.914 9.48682 127.845 8.48447 131.658 8.48447C133.336 8.48447 134.818 8.89848 136.103 9.72651C137.411 10.5545 138.435 11.6876 139.176 13.1258C139.917 14.564 140.298 16.1764 140.32 17.9632V18.0613V18.192ZM129.37 24.4023C130.787 24.4023 131.985 24.0754 132.966 23.4217C133.968 22.7462 134.72 21.9182 135.221 20.9376C135.744 19.9353 136.016 18.9656 136.038 18.0286C136.016 16.9173 135.766 15.8605 135.286 14.8581C134.829 13.834 134.099 12.9951 133.096 12.3413C132.116 11.6658 130.874 11.3281 129.37 11.3281C128.128 11.3281 127.028 11.6441 126.069 12.276C125.11 12.8861 124.358 13.6923 123.814 14.6947C123.291 15.6753 123.029 16.7103 123.029 17.7998C123.029 18.9983 123.291 20.0987 123.814 21.101C124.337 22.1034 125.078 22.9096 126.036 23.5198C127.017 24.1081 128.128 24.4023 129.37 24.4023Z" fill="white" style="fill:white;fill-opacity:1;"/>
<path d="M115.523 2.50255V26.6898H111.111V6.26137H93.4604V26.6898H89.0479V2.50255H115.523Z" fill="white" style="fill:white;fill-opacity:1;"/>
</svg>
