<svg width="283" height="32" viewBox="0 0 283 32" fill="none" xmlns="http://www.w3.org/2000/svg">
<path d="M0 0H75.3505V27.6725H0V0Z" fill="#FF7400"/>
<path d="M28.5506 2.58317H41.7161V24.9153H28.5506V13.7492L22.1508 16.9858V11.9691L28.5506 2.58317Z" fill="#242220"/>
<path d="M15.751 2.58317H2.58555V24.9153H15.751V13.7492L22.1508 16.9858V11.9691L15.751 2.58317Z" fill="#242220"/>
<path d="M73.4107 16.6354L53.4162 18.9751H73.4107V24.9153H43.8203V10.6952L63.8551 9.31207L43.8203 8.52336V2.58317H73.4107V16.6354Z" fill="#242220"/>
<path d="M265.493 21.6004L278.977 8.3308H283V25.884H278.977V12.6144L265.493 25.884H261.47V8.3308H265.493V21.6004Z" fill="#7C7A79"/>
<path d="M258.581 8.3308V11.9059H249.86V25.884H245.838V11.9059H236.988V8.3308H258.581Z" fill="#7C7A79"/>
<path d="M235.693 17.5065C235.65 19.0525 235.285 20.5126 234.598 21.8868C233.912 23.2395 232.925 24.3453 231.638 25.2042C230.372 26.0416 228.881 26.4603 227.165 26.4603C223.453 26.4603 220.621 25.537 218.669 23.6904V32H214.646V8.32734H217.993L218.508 10.904C220.524 8.92855 223.41 7.94085 227.165 7.94085C228.816 7.94085 230.275 8.34881 231.541 9.16474C232.828 9.98067 233.837 11.0972 234.566 12.5143C235.296 13.9315 235.671 15.5204 235.693 17.2811V17.5065ZM224.912 23.626C226.306 23.626 227.486 23.3039 228.452 22.6598C229.439 21.9941 230.179 21.1782 230.672 20.212C231.187 19.2243 231.455 18.2688 231.477 17.3455C231.455 16.2504 231.209 15.2091 230.737 14.2214C230.286 13.2122 229.567 12.3855 228.581 11.7414C227.615 11.0757 226.392 10.7429 224.912 10.7429C223.689 10.7429 222.605 11.0543 221.661 11.6769C220.717 12.2782 219.977 13.0726 219.441 14.0603C218.926 15.0265 218.669 16.0465 218.669 17.12C218.669 18.301 218.926 19.3853 219.441 20.373C219.956 21.3607 220.685 22.1552 221.629 22.7564C222.595 23.3361 223.689 23.626 224.912 23.626Z" fill="#7C7A79"/>
<path d="M212.232 17.3547H193.953C194.018 18.4498 194.329 19.4804 194.887 20.4467C195.444 21.3914 196.27 22.1644 197.365 22.7656C198.459 23.3668 199.789 23.6674 201.355 23.6674C202.707 23.6674 203.897 23.4313 204.927 22.9589C205.978 22.465 206.783 21.8638 207.341 21.1552C207.92 20.4252 208.21 19.7274 208.21 19.0617H212.232C212.232 20.1783 211.803 21.3163 210.945 22.4758C210.087 23.6352 208.832 24.6015 207.18 25.3745C205.528 26.1474 203.565 26.5339 201.291 26.5339C199.253 26.5339 197.365 26.1367 195.627 25.3422C193.889 24.5263 192.505 23.399 191.475 21.9604C190.445 20.5004 189.931 18.847 189.931 17.0005C189.931 15.1109 190.424 13.4469 191.411 12.0083C192.419 10.5482 193.782 9.43164 195.498 8.65866C197.236 7.8642 199.167 7.46697 201.291 7.46697C203.458 7.46697 205.356 7.85346 206.987 8.62645C208.639 9.39943 209.915 10.4945 210.816 11.9116C211.739 13.3073 212.211 14.9499 212.232 16.8394V17.3547ZM201.355 10.3657C199.51 10.3657 198.019 10.7736 196.882 11.5896C195.745 12.4055 194.929 13.4791 194.436 14.8103H207.952C207.588 13.4791 206.869 12.4055 205.796 11.5896C204.745 10.7736 203.265 10.3657 201.355 10.3657Z" fill="#7C7A79"/>
<path d="M165.647 8.3308H187.53V25.884H183.508V11.9059H169.67V25.884H165.647V8.3308Z" fill="#7C7A79"/>
<path d="M152.171 7.58326C154.274 7.58326 156.162 7.99122 157.835 8.80715C159.53 9.62308 160.85 10.7611 161.794 12.2212C162.759 13.6598 163.242 15.2809 163.242 17.0845C163.242 18.8667 162.759 20.4878 161.794 21.9479C160.85 23.3865 159.53 24.5138 157.835 25.3297C156.162 26.1456 154.274 26.5536 152.171 26.5536C150.155 26.5536 148.256 26.1456 146.475 25.3297C144.716 24.4923 143.311 23.3543 142.259 21.9157C141.208 20.4556 140.683 18.8452 140.683 17.0845C140.683 15.3024 141.208 13.692 142.259 12.2534C143.311 10.7933 144.716 9.65528 146.475 8.83936C148.235 8.00196 150.133 7.58326 152.171 7.58326ZM152.204 23.6549C154.177 23.6549 155.84 23.1288 157.192 22.0767C158.543 21.0031 159.219 19.3391 159.219 17.0845C159.219 14.83 158.543 13.1659 157.192 12.0923C155.84 11.0187 154.177 10.4819 152.204 10.4819C150.959 10.4819 149.769 10.7074 148.631 11.1583C147.494 11.6092 146.561 12.3285 145.832 13.3162C145.124 14.3039 144.77 15.56 144.77 17.0845C144.77 18.609 145.124 19.8651 145.832 20.8528C146.561 21.8191 147.484 22.5276 148.599 22.9785C149.736 23.4294 150.938 23.6549 152.204 23.6549Z" fill="#7C7A79"/>
<path d="M138.574 17.5061C138.531 19.0521 138.167 20.5122 137.48 21.8863C136.794 23.2391 135.807 24.3449 134.519 25.2037C133.254 26.0411 131.763 26.4598 130.046 26.4598C126.335 26.4598 123.503 25.5366 121.55 23.69V31.9996H117.528V8.32691H120.874L121.389 10.9035C123.406 8.92812 126.292 7.94041 130.046 7.94041C131.698 7.94041 133.157 8.34838 134.423 9.16431C135.71 9.98024 136.719 11.0968 137.448 12.5139C138.177 13.931 138.553 15.52 138.574 17.2806V17.5061ZM127.794 23.6256C129.188 23.6256 130.368 23.3035 131.333 22.6593C132.32 21.9937 133.061 21.1778 133.554 20.2115C134.069 19.2238 134.337 18.2683 134.359 17.3451C134.337 16.25 134.09 15.2086 133.618 14.2209C133.168 13.2117 132.449 12.3851 131.462 11.7409C130.497 11.0753 129.274 10.7425 127.794 10.7425C126.571 10.7425 125.487 11.0538 124.543 11.6765C123.599 12.2777 122.859 13.0722 122.323 14.0599C121.808 15.0261 121.55 16.046 121.55 17.1196C121.55 18.3006 121.808 19.3849 122.323 20.3726C122.838 21.3603 123.567 22.1547 124.511 22.756C125.476 23.3357 126.571 23.6256 127.794 23.6256Z" fill="#7C7A79"/>
<path d="M114.165 2.05145V25.8851H109.821V5.75534H92.4428V25.8851H88.0983V2.05145H114.165Z" fill="#7C7A79"/>
</svg>
