<svg width="1083" height="1629" viewBox="0 0 1083 1629" fill="none" xmlns="http://www.w3.org/2000/svg">
<path d="M1010.7 817.998C1056.37 897.346 1082.5 989.372 1082.5 1087.5C1082.5 1386.29 840.286 1628.5 541.5 1628.5C242.714 1628.5 0.5 1386.29 0.5 1087.5C0.5 989.372 26.6259 897.346 72.3008 817.998C166.086 979.727 341.09 1088.5 541.5 1088.5C741.91 1088.5 916.913 979.727 1010.7 817.998ZM541.5 546.5C741.746 546.5 916.578 655.296 1010.12 817C916.578 978.704 741.746 1087.5 541.5 1087.5C341.254 1087.5 166.421 978.705 72.8789 817C166.421 655.295 341.254 546.5 541.5 546.5ZM72.5898 276.498C162.762 431.615 327.697 537.897 518.051 546C327.493 554.112 162.409 660.613 72.3008 816.001C26.6262 736.653 0.5 644.628 0.5 546.5C0.5 448.166 26.7366 355.959 72.5898 276.498ZM1010.41 276.498C1056.26 355.96 1082.5 448.165 1082.5 546.5C1082.5 644.628 1056.37 736.653 1010.7 816.001C920.589 660.613 755.506 554.111 564.948 546C755.302 537.897 920.236 431.615 1010.41 276.498ZM541.5 5.5C741.539 5.5 916.217 114.072 1009.83 275.5C916.217 436.928 741.539 545.5 541.5 545.5C341.461 545.5 166.782 436.929 73.1689 275.5C166.782 114.071 341.461 5.5 541.5 5.5ZM541.5 -536.5C840.286 -536.5 1082.5 -294.286 1082.5 4.5C1082.5 102.834 1056.26 195.04 1010.41 274.501C916.553 113.048 741.704 4.5 541.5 4.5C341.296 4.5 166.446 113.048 72.5898 274.501C26.7368 195.04 0.5 102.834 0.5 4.5C0.5 -294.286 242.714 -536.5 541.5 -536.5Z" stroke="#242220" stroke-opacity="0.1"/>
</svg>
