<svg width="287" height="33" viewBox="0 0 287 33" fill="none" xmlns="http://www.w3.org/2000/svg">
<rect width="76.5301" height="28.0829" fill="#FF7400"/>
<path d="M29 2.63281H42.3715V25.2962H29V13.9645L22.5 17.2491V12.158L29 2.63281Z" fill="#242220"/>
<path d="M16 2.63281H2.62846V25.2962H16V13.9645L22.5 17.2491V12.158L16 2.63281Z" fill="#242220"/>
<path d="M74.5615 16.8935L54.254 19.2679H74.5615V25.2962H44.5078V10.8652L64.8563 9.46153L44.5078 8.66111V2.63281H74.5615V16.8935Z" fill="#242220"/>
<path d="M269.218 22.3414L282.914 8.875H286.999V26.6886H282.914V13.2222L269.218 26.6886H265.133V8.875H269.218V22.3414Z" fill="#242220" fill-opacity="0.6"/>
<path d="M262.201 8.875V12.5031H253.344V26.6886H249.258V12.5031H240.27V8.875H262.201Z" fill="#242220" fill-opacity="0.6"/>
<path d="M238.95 18.1919C238.907 19.7609 238.536 21.2426 237.839 22.6372C237.142 24.01 236.14 25.1322 234.832 26.0038C233.547 26.8536 232.032 27.2785 230.289 27.2785C226.519 27.2785 223.643 26.3415 221.66 24.4676V32.9004H217.574V8.8766H220.974L221.496 11.4914C223.545 9.48673 226.476 8.48438 230.289 8.48438C231.967 8.48438 233.448 8.89839 234.734 9.72642C236.041 10.5545 237.066 11.6875 237.807 13.1257C238.547 14.5639 238.929 16.1763 238.95 17.9632V18.0612V18.1919ZM228.001 24.4022C229.417 24.4022 230.616 24.0753 231.596 23.4216C232.599 22.7461 233.35 21.9181 233.852 20.9375C234.375 19.9352 234.647 18.9655 234.669 18.0285C234.647 16.9172 234.396 15.8604 233.917 14.858C233.459 13.8339 232.729 12.995 231.727 12.3413C230.746 11.6658 229.504 11.328 228.001 11.328C226.759 11.328 225.658 11.644 224.7 12.2759C223.741 12.886 222.989 13.6923 222.444 14.6946C221.921 15.6752 221.66 16.7102 221.66 17.7997C221.66 18.9982 221.921 20.0986 222.444 21.101C222.967 22.1033 223.708 22.9095 224.667 23.5197C225.648 24.108 226.759 24.4022 228.001 24.4022Z" fill="#242220" fill-opacity="0.6"/>
<path d="M215.124 18.0266H196.558C196.624 19.1379 196.94 20.1839 197.506 21.1644C198.073 22.1232 198.912 22.9076 200.023 23.5178C201.134 24.1279 202.485 24.433 204.076 24.433C205.449 24.433 206.658 24.1933 207.704 23.7139C208.772 23.2127 209.589 22.6026 210.155 21.8835C210.744 21.1426 211.038 20.4344 211.038 19.7589H215.124C215.124 20.892 214.688 22.0469 213.816 23.2236C212.945 24.4003 211.67 25.3808 209.992 26.1653C208.314 26.9497 206.32 27.342 204.011 27.342C201.941 27.342 200.023 26.9388 198.258 26.1326C196.493 25.3046 195.087 24.1606 194.042 22.7006C192.996 21.2189 192.473 19.541 192.473 17.6671C192.473 15.7495 192.974 14.0608 193.976 12.6008C195 11.1191 196.384 9.986 198.127 9.20155C199.892 8.39531 201.853 7.99219 204.011 7.99219C206.211 7.99219 208.14 8.38441 209.796 9.16886C211.474 9.95331 212.77 11.0646 213.686 12.5028C214.622 13.9191 215.102 15.5861 215.124 17.5036V18.0266ZM204.076 10.9339C202.202 10.9339 200.688 11.3479 199.533 12.1759C198.378 13.004 197.55 14.0935 197.049 15.4445H210.776C210.406 14.0935 209.676 13.004 208.587 12.1759C207.519 11.3479 206.015 10.9339 204.076 10.9339Z" fill="#242220" fill-opacity="0.6"/>
<path d="M167.812 8.875H190.039V26.6886H185.953V12.5031H171.898V26.6886H167.812V8.875Z" fill="#242220" fill-opacity="0.6"/>
<path d="M154.122 8.125C156.257 8.125 158.175 8.53901 159.874 9.36705C161.596 10.1951 162.936 11.35 163.895 12.8317C164.875 14.2917 165.366 15.9368 165.366 17.7672C165.366 19.5758 164.875 21.221 163.895 22.7027C162.936 24.1627 161.596 25.3066 159.874 26.1347C158.175 26.9627 156.257 27.3767 154.122 27.3767C152.074 27.3767 150.145 26.9627 148.337 26.1347C146.55 25.2849 145.122 24.13 144.055 22.67C142.987 21.1883 142.453 19.554 142.453 17.7672C142.453 15.9586 142.987 14.3243 144.055 12.8644C145.122 11.3826 146.55 10.2278 148.337 9.39973C150.123 8.54991 152.052 8.125 154.122 8.125ZM154.155 24.435C156.159 24.435 157.848 23.9012 159.221 22.8334C160.594 21.7439 161.28 20.0552 161.28 17.7672C161.28 15.4792 160.594 13.7905 159.221 12.701C157.848 11.6114 156.159 11.0667 154.155 11.0667C152.891 11.0667 151.681 11.2955 150.526 11.7531C149.372 12.2107 148.424 12.9407 147.683 13.943C146.964 14.9454 146.604 16.2201 146.604 17.7672C146.604 19.3143 146.964 20.589 147.683 21.5914C148.424 22.572 149.361 23.291 150.494 23.7486C151.649 24.2062 152.869 24.435 154.155 24.435Z" fill="#242220" fill-opacity="0.6"/>
<path d="M140.318 18.1919C140.274 19.7609 139.904 21.2426 139.206 22.6372C138.509 24.01 137.507 25.1322 136.199 26.0038C134.914 26.8536 133.399 27.2785 131.656 27.2785C127.886 27.2785 125.01 26.3415 123.027 24.4676V32.9004H118.941V8.8766H122.341L122.864 11.4914C124.912 9.48673 127.843 8.48438 131.656 8.48438C133.334 8.48438 134.816 8.89839 136.101 9.72642C137.409 10.5545 138.433 11.6875 139.174 13.1257C139.915 14.5639 140.296 16.1763 140.318 17.9632V18.0612V18.1919ZM129.368 24.4022C130.784 24.4022 131.983 24.0753 132.963 23.4216C133.966 22.7461 134.718 21.9181 135.219 20.9375C135.742 19.9352 136.014 18.9655 136.036 18.0285C136.014 16.9172 135.764 15.8604 135.284 14.858C134.827 13.8339 134.097 12.995 133.094 12.3413C132.114 11.6658 130.872 11.328 129.368 11.328C128.126 11.328 127.026 11.644 126.067 12.2759C125.108 12.886 124.356 13.6923 123.812 14.6946C123.289 15.6752 123.027 16.7102 123.027 17.7997C123.027 18.9982 123.289 20.0986 123.812 21.101C124.335 22.1033 125.075 22.9095 126.034 23.5197C127.015 24.108 128.126 24.4022 129.368 24.4022Z" fill="#242220" fill-opacity="0.6"/>
<path d="M115.522 2.5V26.6872H111.11V6.25883H93.4594V26.6872H89.0469V2.5H115.522Z" fill="#242220" fill-opacity="0.6"/>
</svg>
