<svg width="287" height="33" viewBox="0 0 287 33" fill="none" xmlns="http://www.w3.org/2000/svg">
<rect width="76.5301" height="28.0829" fill="#FF7400"/>
<path d="M28.998 2.63281H42.3696V25.2962H28.998V13.9645L22.498 17.2491V12.158L28.998 2.63281Z" fill="#242220"/>
<path d="M15.998 2.63281H2.62651V25.2962H15.998V13.9645L22.498 17.2491V12.158L15.998 2.63281Z" fill="#242220"/>
<path d="M74.5595 16.8935L54.252 19.2679H74.5595V25.2962H44.5059V10.8652L64.8543 9.46153L44.5059 8.66111V2.63281H74.5595V16.8935Z" fill="#242220"/>
<path d="M269.218 22.3414L282.914 8.875H286.999V26.6886H282.914V13.2222L269.218 26.6886H265.133V8.875H269.218V22.3414Z" fill="white"/>
<path d="M262.201 8.875V12.5031H253.344V26.6886H249.258V12.5031H240.27V8.875H262.201Z" fill="white"/>
<path d="M238.95 18.1919C238.907 19.7609 238.536 21.2426 237.839 22.6372C237.142 24.01 236.14 25.1322 234.832 26.0038C233.547 26.8536 232.032 27.2785 230.289 27.2785C226.519 27.2785 223.643 26.3415 221.66 24.4676V32.9004H217.574V8.8766H220.974L221.496 11.4914C223.545 9.48673 226.476 8.48438 230.289 8.48438C231.967 8.48438 233.448 8.89839 234.734 9.72642C236.041 10.5545 237.066 11.6875 237.807 13.1257C238.547 14.5639 238.929 16.1763 238.95 17.9632V18.0612V18.1919ZM228.001 24.4022C229.417 24.4022 230.616 24.0753 231.596 23.4216C232.599 22.7461 233.35 21.9181 233.852 20.9375C234.375 19.9352 234.647 18.9655 234.669 18.0285C234.647 16.9172 234.396 15.8604 233.917 14.858C233.459 13.8339 232.729 12.995 231.727 12.3413C230.746 11.6658 229.504 11.328 228.001 11.328C226.759 11.328 225.658 11.644 224.7 12.2759C223.741 12.886 222.989 13.6923 222.444 14.6946C221.921 15.6752 221.66 16.7102 221.66 17.7997C221.66 18.9982 221.921 20.0986 222.444 21.101C222.967 22.1033 223.708 22.9095 224.667 23.5197C225.648 24.108 226.759 24.4022 228.001 24.4022Z" fill="white"/>
<path d="M215.126 18.0266H196.56C196.626 19.1379 196.942 20.1839 197.508 21.1644C198.075 22.1232 198.914 22.9076 200.025 23.5178C201.136 24.1279 202.487 24.433 204.078 24.433C205.451 24.433 206.66 24.1933 207.706 23.7139C208.774 23.2127 209.591 22.6026 210.157 21.8835C210.746 21.1426 211.04 20.4344 211.04 19.7589H215.126C215.126 20.892 214.69 22.0469 213.818 23.2236C212.947 24.4003 211.672 25.3808 209.994 26.1653C208.316 26.9497 206.322 27.342 204.013 27.342C201.942 27.342 200.025 26.9388 198.26 26.1326C196.495 25.3046 195.089 24.1606 194.044 22.7006C192.998 21.2189 192.475 19.541 192.475 17.6671C192.475 15.7495 192.976 14.0608 193.978 12.6008C195.002 11.1191 196.386 9.986 198.129 9.20155C199.894 8.39531 201.855 7.99219 204.013 7.99219C206.213 7.99219 208.142 8.38441 209.798 9.16886C211.476 9.95331 212.772 11.0646 213.687 12.5028C214.624 13.9191 215.104 15.5861 215.126 17.5036V18.0266ZM204.078 10.9339C202.204 10.9339 200.69 11.3479 199.535 12.1759C198.38 13.004 197.552 14.0935 197.051 15.4445H210.778C210.408 14.0935 209.678 13.004 208.589 12.1759C207.521 11.3479 206.017 10.9339 204.078 10.9339Z" fill="white"/>
<path d="M167.812 8.875H190.039V26.6886H185.953V12.5031H171.898V26.6886H167.812V8.875Z" fill="white"/>
<path d="M154.124 8.125C156.259 8.125 158.177 8.53901 159.876 9.36705C161.598 10.1951 162.938 11.35 163.897 12.8317C164.877 14.2917 165.368 15.9368 165.368 17.7672C165.368 19.5758 164.877 21.221 163.897 22.7027C162.938 24.1627 161.598 25.3066 159.876 26.1347C158.177 26.9627 156.259 27.3767 154.124 27.3767C152.075 27.3767 150.147 26.9627 148.338 26.1347C146.552 25.2849 145.124 24.13 144.057 22.67C142.989 21.1883 142.455 19.554 142.455 17.7672C142.455 15.9586 142.989 14.3243 144.057 12.8644C145.124 11.3826 146.552 10.2278 148.338 9.39973C150.125 8.54991 152.054 8.125 154.124 8.125ZM154.156 24.435C156.161 24.435 157.85 23.9012 159.223 22.8334C160.595 21.7439 161.282 20.0552 161.282 17.7672C161.282 15.4792 160.595 13.7905 159.223 12.701C157.85 11.6114 156.161 11.0667 154.156 11.0667C152.893 11.0667 151.683 11.2955 150.528 11.7531C149.373 12.2107 148.426 12.9407 147.685 13.943C146.966 14.9454 146.606 16.2201 146.606 17.7672C146.606 19.3143 146.966 20.589 147.685 21.5914C148.426 22.572 149.363 23.291 150.496 23.7486C151.651 24.2062 152.871 24.435 154.156 24.435Z" fill="white"/>
<path d="M140.32 18.1919C140.276 19.7609 139.906 21.2426 139.208 22.6372C138.511 24.01 137.509 25.1322 136.201 26.0038C134.916 26.8536 133.401 27.2785 131.658 27.2785C127.888 27.2785 125.012 26.3415 123.029 24.4676V32.9004H118.943V8.8766H122.343L122.866 11.4914C124.914 9.48673 127.845 8.48438 131.658 8.48438C133.336 8.48438 134.818 8.89839 136.103 9.72642C137.411 10.5545 138.435 11.6875 139.176 13.1257C139.917 14.5639 140.298 16.1763 140.32 17.9632V18.0612V18.1919ZM129.37 24.4022C130.786 24.4022 131.985 24.0753 132.965 23.4216C133.968 22.7461 134.72 21.9181 135.221 20.9375C135.744 19.9352 136.016 18.9655 136.038 18.0285C136.016 16.9172 135.765 15.8604 135.286 14.858C134.828 13.8339 134.099 12.995 133.096 12.3413C132.116 11.6658 130.874 11.328 129.37 11.328C128.128 11.328 127.028 11.644 126.069 12.2759C125.11 12.886 124.358 13.6923 123.813 14.6946C123.291 15.6752 123.029 16.7102 123.029 17.7997C123.029 18.9982 123.291 20.0986 123.813 21.101C124.336 22.1033 125.077 22.9095 126.036 23.5197C127.017 24.108 128.128 24.4022 129.37 24.4022Z" fill="white"/>
<path d="M115.522 2.5V26.6872H111.11V6.25883H93.4594V26.6872H89.0469V2.5H115.522Z" fill="white"/>
</svg>
